<svg xmlns="http://www.w3.org/2000/svg" xmlns:xlink="http://www.w3.org/1999/xlink" width="411" height="556" style=""><rect id="backgroundrect" width="100%" height="100%" x="0" y="0" fill="none" stroke="none"/><defs><clipPath id="clip0"><path d="M0 0 1280 0 1280 720 0 720Z" fill-rule="evenodd" clip-rule="evenodd" id="svg_1"/></clipPath></defs><g class="currentLayer" style=""><title>Layer 1</title><g class=""><path d="M203.50116820430753,0.000003159046173095703 C159.10116820430756,75.78600315904617 150.37016820430756,487.7630031590462 204.53516820430758,556.0000031590462 C243.70816820430758,495.7280031590461 317.34416820430755,505.71400315904623 373.40416820430755,480.0360031590461 C424.40916820430755,450.7920031590462 402.69816820430754,483.60200315904615 406.8331682043075,50.99900315904617 C386.50016820430756,78.46100315904619 331.35916820430754,79.53000315904617 295.17316820430756,71.32800315904618 C260.5951682043076,62.768003159046174 222.57016820430755,31.028003159046193 203.50116820430753,0.000003159046173095703 z" fill="#FFFFFF" fill-rule="evenodd" id="svg_4" opacity="1" class=""/><path d="M203.65076820430755,-1.872015775727931e-8 C247.86655157890073,75.78580384674802 256.56092556270033,487.76300460683774 202.62111959723075,555.9999998912693 C163.61052486637777,495.72799648085345 90.28012399337368,505.7139900701045 34.45212623821632,480.03598518946455 C-16.34087120519132,450.7919807489982 5.2801259264666385,483.6019826391665 1.1621637457972156,50.99938227915948 C21.41116134507095,78.46048404938375 76.32316125152857,79.53048884994456 112.35916196863155,71.32779200031257 C146.7937627169183,62.7683950106817 184.6603654917879,31.027598321085918 203.65076820430755,-1.872015775727931e-8 z" fill="#FFFFFF" fill-rule="evenodd" id="svg_5" opacity="1" class=""/><path d="M204.28916820430754,19.000003159046173 C161.36316820430756,89.87900315904616 152.92216820430758,475.1810031590462 205.28916820430754,539.0000031590462 C243.16216820430753,482.63000315904617 314.35316820430756,491.9700031590462 368.5521682043076,467.9540031590461 C417.8651682043076,440.6040031590462 396.8741682043076,471.29000315904614 400.8721682043075,66.69700315904618 C381.2141682043076,92.38000315904618 327.9031682043076,93.38100315904617 292.91816820430756,85.70900315904618 C259.48816820430756,77.70400315904618 222.72616820430756,48.01900315904618 204.28916820430754,19.000003159046173 z" fill="#003A73" fill-rule="evenodd" id="svg_6" opacity="1" class=""/><path d="M204.71096820430756,19.00000007396551 C247.6371120078844,89.8788038266897 256.0779283236872,475.1810045646125 203.71132274445154,538.9999999865777 C165.83862767238736,482.6309966756402 94.64712685594583,491.96999045188 40.448128955491825,467.9539857136516 C-8.864868653494625,440.603981402571 12.126128663849357,471.28998323766314 8.128164034484769,66.6971828881467 C27.78616178918753,92.38038460670407 81.09716170171228,93.380989267301 116.08216237238503,85.70939232578763 C149.51226307221327,77.7042952483406 186.27446566742026,48.01859846219506 204.71096820430756,19.00000007396551 z" fill="#003A73" fill-rule="evenodd" id="svg_7" opacity="1" class=""/><path d="M22.740168204307565,231.00000315904617 C18.664168204307543,445.97700315904615 19.82816820430756,427.66000315904625 47.69916820430757,447.3100031590461 C116.66816820430756,485.3590031590462 161.67616820430754,461.21400315904623 204.18916820430758,515.0000031590462 C275.23816820430756,440.5660031590462 245.70416820430756,319.9220031590462 202.94116820430753,231.7490031590462 L22.740168204307565,231.00000315904617 z" fill="#FFFFFF" fill-rule="evenodd" id="svg_8" opacity="1" class=""/><path d="M386.25817820430757,231.00000300675651 C390.3388294104162,445.9770033635001 389.1730610117397,427.6600032615852 361.27394929388174,447.31000082256696 C292.23434596753157,485.3589947869318 247.17914807835507,461.21399084808 204.62314337623235,514.9999871277154 C133.50114988346104,440.56598091003093 158.81916047418247,319.4222831234015 201.62516818246422,231.2498458656218 L386.25817820430757,231.00000300675651 z" fill="#FFFFFF" fill-rule="evenodd" id="svg_9" opacity="1" class=""/><path d="M185.95416820430756,248.74500315904623 C204.15716820430754,248.74500315904623 222.36016820430757,248.74500315904623 240.56316820430754,248.74500315904623 C242.61716820430757,248.74500315904623 244.02016820430754,249.31300315904616 244.77616820430757,250.44800315904615 C245.53016820430753,251.58200315904617 245.91916820430754,254.64400315904618 245.93916820430758,259.63500315904616 C245.95216820430755,262.63000315904617 245.70316820430753,264.6510031590462 245.19316820430754,265.6990031590462 C244.68316820430755,266.7470031590462 243.36216820430758,267.6890031590462 241.22916820430754,268.5230031590462 C237.27716820430754,270.09900315904616 235.30716820430757,273.1220031590462 235.32116820430758,277.5880031590462 C235.50116820430753,336.36600315904616 235.68216820430757,395.1440031590462 235.86216820430758,453.9220031590462 C238.16216820430753,453.77100315904613 240.46016820430754,453.6010031590462 242.75716820430756,453.41500315904614 C246.30216820430758,453.1270031590461 248.91116820430756,451.28400315904616 250.58616820430757,447.9500031590462 C252.26216820430756,444.61600315904616 254.43116820430754,437.06800315904616 257.10316820430756,425.32300315904615 C258.04316820430756,420.8060031590462 259.18816820430754,418.00600315904614 260.54416820430754,416.92400315904615 C261.90016820430753,415.84200315904616 264.21616820430756,415.13100315904614 267.49116820430754,414.7620031590461 C271.08616820430757,414.35700315904614 273.3981682043076,414.3970031590461 274.4391682043076,414.93400315904614 C275.47916820430754,415.4710031590462 276.0061682043075,416.6280031590461 276.01716820430755,418.41100315904623 C276.02516820430753,419.65900315904616 275.84016820430753,421.6920031590462 275.4581682043076,424.5090031590462 C274.12716820430757,435.3650031590462 272.8021682043076,446.2400031590462 271.46916820430755,457.1330031590462 C271.00916820430757,460.51600315904614 270.40216820430754,462.80300315904617 269.64716820430755,463.9930031590462 C268.8931682043075,465.18300315904617 267.35416820430754,465.9560031590462 265.02916820430755,466.28500315904614 C238.65316820430758,470.0070031590461 211.86816820430755,471.2250031590462 185.26816820430753,469.8490031590462 C181.87016820430756,469.6730031590462 180.18016820430756,467.18300315904617 180.19516820430755,462.4400031590462 C180.20616820430757,458.7920031590462 180.43616820430753,456.45700315904617 180.88316820430754,455.43400315904614 C181.33016820430754,454.4110031590461 182.28116820430756,453.6680031590462 183.73616820430755,453.1950031590462 C188.35016820430758,451.7860031590461 190.65516820430753,447.0510031590462 190.67116820430755,439.09700315904615 C190.77816820430758,384.78900315904616 190.88616820430758,330.48100315904617 190.99316820430755,276.1730031590462 C191.00016820430756,272.79100315904617 189.58016820430754,270.3620031590462 186.73416820430754,268.8870031590462 C184.28316820430757,267.6890031590462 182.78316820430757,266.3580031590462 182.23416820430754,264.89500315904615 C181.68416820430758,263.43300315904617 181.41516820430758,261.0140031590462 181.42516820430757,257.6390031590462 C181.43816820430754,253.62600315904615 181.68216820430757,251.14000315904616 182.15916820430755,250.1820031590462 C182.63616820430758,249.22400315904616 183.90116820430757,248.74500315904623 185.95416820430756,248.74500315904623 zM45.02716820430754,248.74500315904623 C59.63716820430756,248.74500315904623 74.24716820430757,248.74500315904623 88.85716820430756,248.74500315904623 C95.03916820430754,275.05100315904616 101.08516820430754,301.8100031590462 107.19216820430756,328.94500315904617 C113.91816820430756,302.6190031590462 120.52016820430754,275.8620031590462 127.11916820430758,248.74500315904623 C141.09816820430757,248.74500315904623 155.07616820430758,248.74500315904623 169.05416820430753,248.74500315904623 C171.89716820430755,248.74500315904623 173.75116820430753,249.2230031590462 174.61616820430754,250.17900315904615 C175.48116820430755,251.13500315904616 175.90716820430754,253.5710031590462 175.89316820430753,257.4870031590462 C175.88016820430755,261.0380031590462 175.57416820430757,263.51800315904615 174.97616820430756,264.92600315904616 C174.37716820430757,266.3330031590462 172.92916820430753,267.66600315904617 170.62816820430754,268.9200031590462 C168.56616820430753,269.99300315904617 167.25516820430755,271.15900315904616 166.69516820430755,272.42400315904615 C166.13516820430755,273.6870031590462 165.84816820430757,275.77000315904615 165.83516820430754,278.6720031590462 C165.58516820430754,332.4950031590462 165.33516820430754,386.31800315904616 165.08516820430754,440.14100315904614 C165.07416820430757,442.4990031590462 165.30716820430757,444.2430031590462 165.78516820430758,445.3750031590462 C166.26316820430753,446.50600315904614 167.58316820430758,447.76000315904616 169.75416820430758,449.1190031590462 C172.72516820430758,450.99600315904615 174.21116820430757,453.3310031590462 174.20116820430758,456.1530031590462 C174.17416820430753,463.2530031590462 173.95816820430758,467.17400315904615 173.55116820430754,467.9160031590462 C173.14516820430754,468.6570031590462 171.73016820430757,468.93400315904614 169.30816820430755,468.7150031590462 C151.32216820430756,467.0910031590462 133.42516820430757,464.2930031590462 115.78616820430756,460.4170031590462 C113.48916820430753,459.9130031590462 112.36316820430756,457.5130031590462 112.39616820430757,453.2440031590462 C112.42416820430753,449.5860031590462 112.56216820430757,446.8880031590462 112.81416820430758,445.1530031590462 C113.06516820430755,443.4160031590462 114.53916820430754,442.2670031590462 117.23716820430758,441.66000315904614 C120.25916820430757,440.9400031590462 121.78016820430753,438.8790031590462 121.80616820430754,435.5370031590462 C122.08416820430756,398.5130031590461 122.36216820430758,361.48900315904615 122.64116820430758,324.4640031590462 C115.32116820430758,353.6130031590462 108.05816820430755,382.27100315904613 100.65316820430755,410.3350031590462 C96.33316820430755,409.4790031590462 92.02716820430754,408.55500315904624 87.72716820430756,407.60200315904615 C81.01816820430756,378.4650031590461 74.44416820430754,349.79400315904616 67.51616820430755,321.7500031590462 C67.34516820430756,355.20500315904616 67.17416820430756,388.66000315904625 67.00316820430754,422.11600315904616 C66.98616820430755,425.3880031590461 68.35616820430755,428.22800315904624 71.13016820430755,430.61600315904616 C74.52016820430757,433.4350031590461 76.19916820430757,437.1760031590462 76.17016820430754,441.82700315904617 C76.13716820430756,447.1420031590462 74.41616820430755,449.27100315904613 71.03116820430756,448.1610031590461 C62.67816820430755,445.4220031590462 54.39716820430755,442.45300315904615 46.20316820430756,439.2730031590462 C43.41016820430755,438.1900031590462 42.01916820430756,435.2490031590462 42.020168204307566,430.4900031590462 C42.02116820430754,427.13500315904616 43.196168204307554,424.99700315904624 45.54216820430756,424.0380031590462 C47.29116820430755,423.1710031590462 48.38816820430756,422.33800315904614 48.84816820430757,421.58700315904616 C49.30816820430755,420.83400315904623 49.53816820430757,419.3060031590462 49.54216820430756,417.0090031590462 C49.63516820430755,371.2590031590462 49.728168204307565,325.51000315904616 49.821168204307554,279.76000315904616 C49.829168204307564,275.95700315904617 49.506168204307556,273.02900315904617 48.837168204307545,270.9830031590462 C48.16916820430757,268.9420031590462 46.74516820430756,267.24100315904616 44.53916820430754,265.91600315904617 C42.17916820430756,264.5880031590462 41.000168204307556,263.2640031590462 41.000168204307556,261.94100315904615 C41.039168204307536,260.26800315904615 41.079168204307564,258.5950031590462 41.11816820430755,256.9220031590462 C41.19716820430756,253.26200315904617 41.454168204307564,250.98600315904616 41.88816820430756,250.09100315904618 C42.323168204307564,249.1940031590462 43.369168204307556,248.74500315904623 45.02716820430754,248.74500315904623 z" fill="#DA2127" fill-rule="evenodd" id="svg_10" opacity="1" class=""/><text fill="#000000" fill-opacity="0" font-family="Arial,Arial_MSFontService,sans-serif" font-size="221.653" x="41.000168204307556" y="442.6920031590462" id="svg_11" opacity="1" class="">ML</text><path d="M285.62216820430757,248.74500315904623 C310.2611682043076,248.74500315904623 334.90016820430753,248.74500315904623 359.5401682043075,248.74500315904623 C361.75116820430753,248.74500315904623 363.2911682043076,249.10300315904618 364.1611682043075,249.81300315904616 C365.03016820430753,250.5230031590462 365.70316820430753,252.25600315904614 366.1801682043075,255.0110031590462 C366.26016820430755,255.48300315904618 366.3781682043076,256.1510031590462 366.5371682043076,257.01500315904616 C368.31816820430754,265.6990031590462 370.0661682043076,274.3260031590462 371.8501682043076,282.8820031590462 C372.1661682043076,284.4950031590462 372.3191682043075,285.8860031590462 372.31816820430754,287.05400315904615 C372.31716820430756,289.5450031590462 370.4411682043076,290.9580031590462 366.68816820430754,291.26800315904615 C361.6801682043075,291.6820031590462 358.55316820430755,290.9680031590462 357.2871682043076,289.1460031590462 C356.01716820430755,287.3170031590462 354.05816820430755,282.6460031590462 351.35116820430756,275.1130031590462 C349.66716820430753,270.48100315904617 348.03416820430755,267.35900315904615 346.4101682043076,265.77700315904616 C344.78216820430754,264.19000315904617 342.28116820430756,263.4270031590462 338.89216820430755,263.50500315904617 C337.94516820430755,263.52700315904616 336.21216820430755,263.69300315904616 333.69016820430755,263.9990031590462 C333.83416820430756,287.7970031590462 333.97816820430756,311.5950031590462 334.12316820430755,335.39200315904617 C336.1191682043076,335.13300315904615 338.11416820430753,334.8580031590462 340.1071682043076,334.5880031590462 C343.23316820430756,334.1650031590462 345.38316820430754,333.08200315904617 346.59716820430754,331.40900315904616 C347.80816820430755,329.7380031590462 348.65716820430754,327.0240031590462 349.19516820430755,323.29100315904617 C349.88916820430757,319.0590031590462 350.52716820430754,316.31500315904617 351.15516820430753,315.07000315904617 C351.78116820430756,313.8260031590462 354.3501682043076,312.9420031590462 358.8771682043075,312.4130031590462 C361.99516820430756,312.04900315904615 363.88016820430755,312.13500315904616 364.54816820430756,312.68100315904616 C365.2151682043076,313.2260031590462 365.54416820430754,314.41200315904615 365.5461682043076,316.22700315904615 C365.5641682043075,330.51300315904615 365.5811682043076,344.79900315904615 365.5991682043076,359.0840031590462 C365.60116820430756,360.90000315904615 365.29916820430753,362.15700315904616 364.67916820430753,362.84400315904617 C364.0571682043076,363.5310031590462 362.10116820430756,364.26800315904615 358.7831682043076,364.98100315904617 C354.76316820430753,365.8460031590462 352.23416820430754,365.68600315904615 351.17516820430757,364.53000315904615 C350.11416820430753,363.3700031590462 349.3211682043076,360.1440031590462 348.74716820430757,354.8750031590462 C348.09216820430754,349.52900315904617 345.25216820430757,347.29400315904616 340.18116820430754,348.09000315904615 C338.19016820430755,348.4030031590462 336.19916820430757,348.7210031590462 334.20516820430754,349.0210031590462 C334.35916820430754,374.31900315904613 334.51216820430756,399.61700315904613 334.66616820430755,424.91500315904614 C334.6891682043076,428.83300315904626 336.95216820430755,430.8970031590461 341.4441682043076,430.96800315904625 C343.6841682043076,430.96300315904614 345.09416820430755,431.2870031590462 345.67816820430755,431.96700315904616 C346.26016820430755,432.6470031590462 346.55616820430754,434.45800315904614 346.57016820430755,437.4020031590462 C346.59216820430754,441.98100315904617 346.27916820430755,444.78900315904616 345.6291682043076,445.8260031590462 C344.97916820430754,446.8640031590462 343.38716820430756,447.8120031590462 340.8451682043076,448.63600315904614 C323.24016820430757,454.34800315904613 305.28916820430754,459.0430031590462 287.12316820430755,462.57700315904617 C284.1001682043076,463.16500315904614 282.12116820430754,462.8310031590462 281.1961682043076,461.62100315904615 C280.26916820430756,460.4070031590462 279.79316820430756,457.66400315904616 279.76416820430757,453.3980031590462 C279.7451682043076,450.55300315904617 279.95216820430755,448.71700315904616 280.38516820430755,447.89000315904616 C280.8191682043076,447.06300315904616 282.1071682043076,445.93800315904616 284.2491682043076,444.5080031590462 C287.18616820430753,442.58800315904614 288.99816820430755,441.0410031590462 289.7061682043076,439.8990031590462 C290.41416820430754,438.7580031590462 290.76016820430755,437.17400315904615 290.7451682043076,435.15000315904615 C290.36516820430757,381.99200315904613 289.98516820430757,328.8340031590462 289.6051682043076,275.67600315904616 C289.5881682043076,273.38800315904615 289.16116820430756,271.6370031590462 288.32216820430756,270.42100315904617 C287.48316820430756,269.20500315904616 285.67616820430754,267.96000315904615 282.90216820430754,266.6770031590462 C280.91916820430754,265.73400315904615 279.91716820430753,263.5710031590462 279.89416820430756,260.1970031590462 C279.89216820430755,259.84200315904616 279.91816820430756,257.8890031590462 279.97316820430757,254.3380031590462 C280.4221682043076,250.60900315904615 282.30516820430756,248.74500315904623 285.62216820430757,248.74500315904623 z" fill="#DA2127" fill-rule="evenodd" id="svg_12" opacity="1" class=""/><text fill="#000000" fill-opacity="0" font-family="Arial,Arial_MSFontService,sans-serif" font-size="214.114" x="279.76316820430753" y="436.0950031590462" id="svg_13" opacity="1" class="">F</text><text fill="#FFFFFF" font-family="Bernard MT,Bernard MT_MSFontService,sans-serif" font-weight="400" font-stretch="condensed" font-size="43" y="135.00000315904617" x="94.77116429805756" id="svg_14" opacity="1" class="">Major League<tspan font-size="96" x="52.079064298057546" y="221.00000315904617" id="svg_15">Foosball</tspan></text><path d="M185.00016820430756,65.75100315904618 L201.42516820430757,65.75100315904618 L206.50016820430756,52.00000315904617 L211.57516820430754,65.75100315904618 L228.00016820430756,65.75100315904618 L214.71216820430755,74.24900315904617 L219.78816820430757,88.00000315904617 L206.50016820430756,79.50100315904618 L193.21216820430755,88.00000315904617 L198.28816820430757,74.24900315904617 z" fill="#FFFFFF" fill-rule="evenodd" id="svg_16" opacity="1" class=""/><path d="M20.07216820430756,126.60200315904615 L34.16016820430755,118.26100315904614 L31.611168204307546,104.02700315904616 L42.867168204307546,113.10600315904617 L56.95516820430757,104.76400315904618 L49.82216820430756,118.71700315904616 L61.07816820430756,127.79500315904613 L45.41516820430755,127.3400031590462 L38.28316820430754,141.2920031590462 L35.73516820430757,127.05800315904617 z" fill="#FFFFFF" fill-rule="evenodd" id="svg_17" opacity="1" class=""/><path d="M354.38516820430755,104.63100315904617 L368.40516820430753,113.08800315904614 L379.7341682043076,104.10100315904617 L377.0691682043075,118.31400315904614 L391.0881682043075,126.77100315904613 L375.4221682043076,127.09800315904619 L372.7581682043076,141.3110031590462 L365.7401682043076,127.30000315904618 L350.07416820430757,127.62800315904616 L361.4031682043076,118.64200315904617 z" fill="#FFFFFF" fill-rule="evenodd" id="svg_18" opacity="1" class=""/></g></g></svg>